<svg width="21" height="21" fill="none" xmlns="http://www.w3.org/2000/svg"><path d="M20.99 16.562c.045.341-.06.638-.311.89l-2.957 2.934a1.664 1.664 0 0 1-.522.378c-.215.104-.427.17-.634.2-.015 0-.06.004-.133.011-.074.008-.17.011-.29.011-.281 0-.737-.048-1.367-.144-.63-.097-1.4-.334-2.312-.712-.911-.378-1.945-.944-3.1-1.7-1.157-.756-2.387-1.794-3.691-3.113-1.038-1.022-1.897-2-2.58-2.934-.68-.934-1.23-1.797-1.644-2.59C1.034 9 .723 8.28.515 7.636A11.44 11.44 0 0 1 .093 5.97c-.074-.467-.104-.834-.09-1.1.016-.267.023-.415.023-.445a2.16 2.16 0 0 1 .2-.634c.104-.214.23-.389.378-.522L3.56.311A.98.98 0 0 1 4.272 0a.83.83 0 0 1 .511.167c.149.11.275.248.378.411l2.38 4.513c.132.237.17.496.11.778a1.376 1.376 0 0 1-.378.711L6.184 7.67a.37.37 0 0 0-.078.144.549.549 0 0 0-.033.167c.06.311.192.667.4 1.067.178.356.452.79.823 1.3.37.512.896 1.101 1.578 1.768.667.682 1.26 1.212 1.778 1.59.52.377.953.655 1.301.833.348.178.615.286.8.322l.278.056a.53.53 0 0 0 .145-.033.37.37 0 0 0 .144-.078l1.267-1.29c.267-.237.578-.355.934-.355.252 0 .452.044.6.133h.023l4.29 2.535c.311.192.497.437.556.733z" fill="#191919"/></svg>