<svg width="30" height="30" viewBox="0 0 50 50" fill="none" xmlns="http://www.w3.org/2000/svg"><circle cx="20" cy="20" r="20" fill="#DABFB1"/><path d="M23.661 12.003L21.502 12c-2.425 0-3.992 1.565-3.992 3.987v1.838h-2.17a.335.335 0 0 0-.34.33v2.664c0 .182.152.33.34.33h2.17v6.72c0 .183.152.331.34.331h2.831c.188 0 .34-.148.34-.33v-6.72h2.537c.188 0 .34-.149.34-.331v-2.663a.326.326 0 0 0-.099-.234.344.344 0 0 0-.24-.097h-2.538v-1.558c0-.75.183-1.13 1.185-1.13h1.455a.335.335 0 0 0 .339-.33v-2.473a.335.335 0 0 0-.339-.33z" fill="#fff"/></svg>