<svg width="30" height="30" viewBox="0 0 50 50" fill="none" xmlns="http://www.w3.org/2000/svg"><circle cx="20" cy="20" r="20" fill="#DABFB1"/><path d="M23.584 12h-7.169A4.42 4.42 0 0 0 12 16.415v7.17A4.42 4.42 0 0 0 16.415 28h7.17A4.42 4.42 0 0 0 28 23.585v-7.17A4.42 4.42 0 0 0 23.584 12zm2.997 11.585a3 3 0 0 1-2.996 2.995h-7.17a3 3 0 0 1-2.995-2.995v-7.17a3 3 0 0 1 2.995-2.995h7.17a3 3 0 0 1 2.995 2.995v7.17z" fill="#fff"/><path d="M20 15.878A4.127 4.127 0 0 0 15.877 20 4.127 4.127 0 0 0 20 24.123 4.127 4.127 0 0 0 24.122 20 4.127 4.127 0 0 0 20 15.878zm0 6.825A2.706 2.706 0 0 1 17.296 20 2.706 2.706 0 0 1 20 17.297 2.706 2.706 0 0 1 22.703 20 2.706 2.706 0 0 1 20 22.703zm4.296-8.029a1.045 1.045 0 0 0-1.041 1.04c0 .274.111.543.305.737.193.193.462.305.736.305.274 0 .542-.112.736-.305a1.05 1.05 0 0 0 .305-.736c0-.275-.111-.543-.305-.737a1.046 1.046 0 0 0-.736-.304z" fill="#fff"/></svg>