<svg width="60" height="60" fill="none" xmlns="http://www.w3.org/2000/svg"><circle cx="30" cy="30" r="30" fill="#191919"/><path d="M36.246 33.876c-.784-.774-1.763-.774-2.542 0a148.6 148.6 0 0 0-1.773 1.778c-.16.165-.294.2-.489.09-.385-.21-.794-.38-1.164-.609-1.723-1.084-3.166-2.477-4.444-4.045-.635-.78-1.2-1.613-1.594-2.552-.08-.19-.064-.315.09-.47.595-.574 1.174-1.163 1.758-1.753.814-.819.814-1.778-.005-2.602-.464-.47-.929-.929-1.393-1.398-.48-.48-.954-.964-1.439-1.438-.784-.764-1.762-.764-2.542.005-.599.589-1.173 1.193-1.782 1.772-.565.535-.85 1.19-.91 1.953-.094 1.244.21 2.417.64 3.561.879 2.367 2.217 4.47 3.84 6.398 2.193 2.607 4.81 4.67 7.871 6.157 1.379.67 2.807 1.184 4.36 1.269 1.069.06 1.998-.21 2.742-1.044.51-.57 1.084-1.089 1.623-1.633.8-.809.804-1.788.01-2.587a768.03 768.03 0 0 0-2.857-2.852zm-.954-3.98l1.843-.315a8.236 8.236 0 0 0-2.302-4.444 8.192 8.192 0 0 0-4.695-2.343l-.26 1.853a6.356 6.356 0 0 1 3.636 1.813 6.355 6.355 0 0 1 1.778 3.436zm2.882-8.01A13.588 13.588 0 0 0 30.384 18l-.26 1.853a11.783 11.783 0 0 1 6.732 3.356 11.774 11.774 0 0 1 3.301 6.367L42 29.262a13.688 13.688 0 0 0-3.826-7.377z" fill="#fff"/></svg>