<svg width="30" height="30" viewBox="0 0 50 50" fill="none" xmlns="http://www.w3.org/2000/svg"><circle cx="20" cy="20" r="20" fill="#DABFB1"/><g clip-path="url(#clip0)"><path d="M28.905 24.14a1.224 1.224 0 0 0-.061-.117c-.313-.563-.91-1.253-1.79-2.072l-.02-.018-.008-.01-.01-.009h-.01c-.4-.381-.652-.637-.758-.769-.194-.25-.238-.503-.132-.759.075-.194.357-.602.844-1.227.256-.332.459-.597.609-.797 1.08-1.437 1.55-2.355 1.406-2.755l-.056-.094c-.038-.056-.134-.107-.29-.154a1.477 1.477 0 0 0-.6-.024l-2.7.019a.35.35 0 0 0-.187.005l-.122.028-.047.023-.037.028a.416.416 0 0 0-.103.099.645.645 0 0 0-.094.164 15.29 15.29 0 0 1-1.003 2.108c-.23.388-.443.724-.637 1.008a4.843 4.843 0 0 1-.487.628c-.132.134-.25.242-.356.323-.107.081-.188.116-.244.103a6.869 6.869 0 0 1-.16-.037.622.622 0 0 1-.21-.23 1.028 1.028 0 0 1-.108-.366 4.059 4.059 0 0 1-.028-.829c.006-.194.01-.325.01-.394 0-.237.004-.495.013-.773.01-.278.017-.498.024-.66.006-.163.009-.335.009-.516s-.011-.323-.033-.426a1.461 1.461 0 0 0-.098-.3.506.506 0 0 0-.192-.225 1.082 1.082 0 0 0-.314-.127c-.331-.075-.753-.115-1.265-.122-1.162-.012-1.91.063-2.24.226-.131.068-.25.162-.356.28-.113.138-.128.213-.047.225.375.057.64.19.796.403l.057.113c.043.081.087.225.13.431.045.206.073.434.085.684.031.456.031.847 0 1.171-.031.325-.06.578-.089.76a1.517 1.517 0 0 1-.239.646.162.162 0 0 1-.047.047.703.703 0 0 1-.253.047c-.087 0-.194-.044-.318-.131a2.254 2.254 0 0 1-.39-.361 4.82 4.82 0 0 1-.454-.642c-.169-.275-.344-.6-.525-.975l-.15-.271a23.52 23.52 0 0 1-.384-.764 14.693 14.693 0 0 1-.43-.97.618.618 0 0 0-.226-.3l-.047-.028a.64.64 0 0 0-.15-.08.993.993 0 0 0-.215-.06l-2.568.018c-.262 0-.44.06-.534.178l-.038.056a.304.304 0 0 0-.028.15c0 .069.019.153.056.253.375.881.783 1.73 1.223 2.55.44.818.823 1.477 1.148 1.977.325.5.656.971.994 1.415.337.443.56.728.67.852.11.126.195.22.258.282l.234.225c.15.15.37.33.66.538.291.21.613.416.966.62a5.28 5.28 0 0 0 1.232.496c.469.128.925.18 1.369.154h1.077c.219-.018.385-.087.497-.206l.037-.047a.623.623 0 0 0 .07-.173.954.954 0 0 0 .033-.258c-.006-.268.014-.51.061-.726.047-.215.1-.378.16-.487a1.2 1.2 0 0 1 .36-.413.617.617 0 0 1 .075-.032c.15-.05.327-.002.53.145s.394.328.572.544c.178.215.392.457.642.726.25.269.468.468.656.6l.187.112c.125.075.288.144.488.207.2.062.374.078.524.046l2.4-.037c.237 0 .421-.04.552-.117.132-.078.21-.165.235-.258a.725.725 0 0 0 .005-.319 1.174 1.174 0 0 0-.066-.248z" fill="#fff"/></g><defs><clipPath id="clip0"><path fill="#fff" transform="translate(11 11)" d="M0 0h18v18H0z"/></clipPath></defs></svg>